<svg xmlns="http://www.w3.org/2000/svg" viewBox="0 0 512 512">
  <rect width="512" height="512" rx="80" fill="#1e3a5f"/>
  <rect x="120" y="100" width="200" height="280" rx="10" fill="#2563eb"/>
  <rect x="140" y="120" width="160" height="12" rx="4" fill="#93c5fd"/>
  <rect x="140" y="148" width="120" height="8" rx="3" fill="#60a5fa" opacity="0.7"/>
  <rect x="140" y="168" width="140" height="8" rx="3" fill="#60a5fa" opacity="0.7"/>
  <rect x="140" y="188" width="100" height="8" rx="3" fill="#60a5fa" opacity="0.7"/>
  <rect x="140" y="220" width="140" height="8" rx="3" fill="#60a5fa" opacity="0.5"/>
  <rect x="140" y="240" width="120" height="8" rx="3" fill="#60a5fa" opacity="0.5"/>
  <rect x="140" y="260" width="130" height="8" rx="3" fill="#60a5fa" opacity="0.5"/>
  <rect x="160" y="100" width="180" height="280" rx="10" fill="#1d4ed8" transform="rotate(5,250,240)"/>
  <rect x="190" y="100" width="200" height="280" rx="10" fill="#3b82f6" transform="rotate(-3,290,240)"/>
  <rect x="210" y="120" width="160" height="12" rx="4" fill="#bfdbfe"/>
  <rect x="210" y="148" width="120" height="8" rx="3" fill="#93c5fd" opacity="0.8"/>
  <rect x="210" y="168" width="140" height="8" rx="3" fill="#93c5fd" opacity="0.8"/>
  <rect x="210" y="188" width="100" height="8" rx="3" fill="#93c5fd" opacity="0.8"/>
  <text x="370" y="420" font-size="120" text-anchor="middle" fill="#fbbf24" font-family="Georgia, serif" font-weight="bold">Ч</text>
</svg>
